<svg width="261" height="57" viewBox="0 0 261 57" version="1.1" xmlns="http://www.w3.org/2000/svg" xmlns:xlink="http://www.w3.org/1999/xlink">
<title>Aveylable</title>
<desc>Created using Figma</desc>
<g id="Canvas" transform="matrix(3 0 0 3 -45 -273)">
<g id="Aveylable">
<use xlink:href="#path0_fill" transform="translate(15 86)" fill="#2196F3"/>
<use xlink:href="#path1_fill" transform="translate(15 86)"/>
</g>
</g>
<defs>
<path id="path0_fill" d="M 46.5458 5.68L 46.5458 19L 44.9077 19L 44.9077 5.68L 46.5458 5.68ZM 53.2292 8.992C 54.1892 8.992 54.9992 9.232 55.6592 9.712C 56.3312 10.192 56.7992 10.834 57.0632 11.638L 57.0632 9.118L 58.7012 9.118L 58.7012 19L 57.0632 19L 57.0632 16.48C 56.7992 17.284 56.3312 17.926 55.6592 18.406C 54.9992 18.886 54.1892 19.126 53.2292 19.126C 52.3532 19.126 51.5732 18.922 50.8892 18.514C 50.2052 18.106 49.6652 17.524 49.2692 16.768C 48.8852 16 48.6932 15.1 48.6932 14.068C 48.6932 13.036 48.8852 12.136 49.2692 11.368C 49.6652 10.6 50.2052 10.012 50.8892 9.604C 51.5732 9.196 52.3532 8.992 53.2292 8.992ZM 53.6972 10.45C 52.6892 10.45 51.8792 10.774 51.2672 11.422C 50.6672 12.058 50.3672 12.94 50.3672 14.068C 50.3672 15.196 50.6672 16.084 51.2672 16.732C 51.8792 17.368 52.6892 17.686 53.6972 17.686C 54.3452 17.686 54.9212 17.536 55.4252 17.236C 55.9412 16.936 56.3432 16.516 56.6312 15.976C 56.9192 15.424 57.0632 14.788 57.0632 14.068C 57.0632 13.348 56.9192 12.712 56.6312 12.16C 56.3432 11.608 55.9412 11.188 55.4252 10.9C 54.9212 10.6 54.3452 10.45 53.6972 10.45ZM 66.7621 8.992C 67.6381 8.992 68.4181 9.196 69.1021 9.604C 69.7861 10.012 70.3201 10.6 70.7041 11.368C 71.1001 12.136 71.2981 13.036 71.2981 14.068C 71.2981 15.1 71.1001 16 70.7041 16.768C 70.3201 17.524 69.7861 18.106 69.1021 18.514C 68.4181 18.922 67.6381 19.126 66.7621 19.126C 65.8021 19.126 64.9861 18.886 64.3141 18.406C 63.6541 17.914 63.1981 17.272 62.9461 16.48L 62.9461 19L 61.3081 19L 61.3081 5.68L 62.9461 5.68L 62.9461 11.638C 63.1981 10.846 63.6541 10.21 64.3141 9.73C 64.9861 9.238 65.8021 8.992 66.7621 8.992ZM 66.2941 10.45C 65.6581 10.45 65.0821 10.6 64.5661 10.9C 64.0501 11.188 63.6481 11.608 63.3601 12.16C 63.0721 12.712 62.9281 13.348 62.9281 14.068C 62.9281 14.788 63.0721 15.424 63.3601 15.976C 63.6481 16.516 64.0501 16.936 64.5661 17.236C 65.0821 17.536 65.6581 17.686 66.2941 17.686C 67.3141 17.686 68.1241 17.368 68.7241 16.732C 69.3361 16.084 69.6421 15.196 69.6421 14.068C 69.6421 12.94 69.3361 12.058 68.7241 11.422C 68.1241 10.774 67.3141 10.45 66.2941 10.45ZM 75.075 5.68L 75.075 19L 73.437 19L 73.437 5.68L 75.075 5.68ZM 86.7985 13.51C 86.7985 13.858 86.7745 14.158 86.7265 14.41L 78.8245 14.41C 78.8605 15.538 79.1785 16.384 79.7785 16.948C 80.3905 17.512 81.1345 17.794 82.0105 17.794C 82.8025 17.794 83.4625 17.596 83.9905 17.2C 84.5305 16.792 84.8605 16.252 84.9805 15.58L 86.7265 15.58C 86.6065 16.264 86.3365 16.876 85.9165 17.416C 85.5085 17.956 84.9745 18.376 84.3145 18.676C 83.6545 18.976 82.9105 19.126 82.0825 19.126C 81.1345 19.126 80.2945 18.922 79.5625 18.514C 78.8305 18.106 78.2545 17.524 77.8345 16.768C 77.4265 16 77.2225 15.1 77.2225 14.068C 77.2225 13.036 77.4265 12.136 77.8345 11.368C 78.2545 10.6 78.8305 10.012 79.5625 9.604C 80.2945 9.196 81.1345 8.992 82.0825 8.992C 83.0425 8.992 83.8765 9.196 84.5845 9.604C 85.3045 10.012 85.8505 10.558 86.2225 11.242C 86.6065 11.926 86.7985 12.682 86.7985 13.51ZM 85.1425 13.618C 85.1785 12.886 85.0585 12.274 84.7825 11.782C 84.5065 11.29 84.1285 10.924 83.6485 10.684C 83.1685 10.444 82.6465 10.324 82.0825 10.324C 81.1825 10.324 80.4265 10.606 79.8145 11.17C 79.2025 11.722 78.8725 12.538 78.8245 13.618L 85.1425 13.618Z"/>
<path id="path1_fill" d="M 8.748 16.066L 3.168 16.066L 2.106 19L 0.342 19L 5.04 6.544L 6.894 6.544L 11.574 19L 9.81 19L 8.748 16.066ZM 8.28 14.788L 5.958 8.38L 3.636 14.788L 8.28 14.788ZM 17.066 17.254L 20.126 9.118L 21.89 9.118L 18.02 19L 16.076 19L 12.206 9.118L 13.97 9.118L 17.066 17.254ZM 32.5876 13.51C 32.5876 13.858 32.5636 14.158 32.5156 14.41L 24.6136 14.41C 24.6496 15.538 24.9676 16.384 25.5676 16.948C 26.1796 17.512 26.9236 17.794 27.7996 17.794C 28.5916 17.794 29.2516 17.596 29.7796 17.2C 30.3196 16.792 30.6496 16.252 30.7696 15.58L 32.5156 15.58C 32.3956 16.264 32.1256 16.876 31.7056 17.416C 31.2976 17.956 30.7636 18.376 30.1036 18.676C 29.4436 18.976 28.6996 19.126 27.8716 19.126C 26.9236 19.126 26.0836 18.922 25.3516 18.514C 24.6196 18.106 24.0436 17.524 23.6236 16.768C 23.2156 16 23.0116 15.1 23.0116 14.068C 23.0116 13.036 23.2156 12.136 23.6236 11.368C 24.0436 10.6 24.6196 10.012 25.3516 9.604C 26.0836 9.196 26.9236 8.992 27.8716 8.992C 28.8316 8.992 29.6656 9.196 30.3736 9.604C 31.0936 10.012 31.6396 10.558 32.0116 11.242C 32.3956 11.926 32.5876 12.682 32.5876 13.51ZM 30.9316 13.618C 30.9676 12.886 30.8476 12.274 30.5716 11.782C 30.2956 11.29 29.9176 10.924 29.4376 10.684C 28.9576 10.444 28.4356 10.324 27.8716 10.324C 26.9716 10.324 26.2156 10.606 25.6036 11.17C 24.9916 11.722 24.6616 12.538 24.6136 13.618L 30.9316 13.618ZM 35.414 9.118L 38.618 16.894L 41.588 9.118L 43.406 9.118L 37.538 23.68L 35.684 23.68L 37.736 18.838L 33.578 9.118L 35.414 9.118Z"/>
</defs>
</svg>
