<svg width="38" height="42" viewBox="0 0 38 42" version="1.1" xmlns="http://www.w3.org/2000/svg" xmlns:xlink="http://www.w3.org/1999/xlink">
<title>controls (1)</title>
<desc>Created using Figma</desc>
<g id="Canvas" transform="matrix(2 0 0 2 -2518 -268)">
<g id="controls (1)">
<g id="Group">
<g id="Vector">
<use xlink:href="#path0_fill" transform="translate(1259 134)"/>
</g>
<g id="Vector">
<use xlink:href="#path1_fill" transform="translate(1259 149.75)"/>
</g>
<g id="Vector">
<use xlink:href="#path2_fill" transform="translate(1259 141.72)"/>
</g>
</g>
</g>
</g>
<defs>
<path id="path0_fill" d="M 2.46296 5.25C 3.70113 5.25 4.72607 4.26975 4.89778 3L 18.6481 3C 18.8427 3 19 2.83238 19 2.625C 19 2.41762 18.8427 2.25 18.6481 2.25L 4.89778 2.25C 4.72607 0.98025 3.70113 0 2.46296 0C 1.10481 0 0 1.17788 0 2.625C 0 4.07212 1.10481 5.25 2.46296 5.25ZM 2.46296 0.75C 3.43302 0.75 4.22222 1.59113 4.22222 2.625C 4.22222 3.65887 3.43302 4.5 2.46296 4.5C 1.49291 4.5 0.703704 3.65887 0.703704 2.625C 0.703704 1.59113 1.49291 0.75 2.46296 0.75Z"/>
<path id="path1_fill" d="M 16.537 0C 15.2989 0 14.2739 0.98025 14.1022 2.25L 0.351852 2.25C 0.15763 2.25 0 2.41762 0 2.625C 0 2.83238 0.15763 3 0.351852 3L 14.1022 3C 14.2739 4.26975 15.2989 5.25 16.537 5.25C 17.8948 5.25 19 4.07212 19 2.625C 19 1.17788 17.8948 0 16.537 0ZM 16.537 4.5C 15.567 4.5 14.7778 3.65887 14.7778 2.625C 14.7778 1.59113 15.567 0.75 16.537 0.75C 17.5071 0.75 18.2963 1.59113 18.2963 2.625C 18.2963 3.65887 17.5071 4.5 16.537 4.5Z"/>
<path id="path2_fill" d="M 18.6481 2.40525L 12.0924 2.40525C 11.9531 1.0545 10.8768 1.65939e-07 9.57283 1.65939e-07C 8.26887 1.65939e-07 7.19256 1.05487 7.05322 2.40525L 0.351852 2.40525C 0.15763 2.40525 0 2.57287 0 2.78025C 0 2.98762 0.15763 3.15525 0.351852 3.15525L 7.07539 3.15525C 7.27841 4.43025 8.31954 5.40525 9.57283 5.40525C 10.8261 5.40525 11.8669 4.43025 12.0699 3.15525L 18.6481 3.15525C 18.8427 3.15525 19 2.98762 19 2.78025C 19 2.57287 18.8427 2.40525 18.6481 2.40525ZM 9.57283 4.65525C 8.56267 4.65525 7.74074 3.77925 7.74074 2.70262C 7.74074 1.626 8.56267 0.75 9.57283 0.75C 10.583 0.75 11.4049 1.626 11.4049 2.70262C 11.4049 3.77925 10.583 4.65525 9.57283 4.65525Z"/>
</defs>
</svg>
