<svg width="30" height="28" viewBox="0 0 30 28" version="1.1" xmlns="http://www.w3.org/2000/svg" xmlns:xlink="http://www.w3.org/1999/xlink">
<title>Vector</title>
<desc>Created using Figma</desc>
<g id="Canvas" transform="matrix(2 0 0 2 -1636 -374)">
<g id="Vector">
<use xlink:href="#path0_fill" transform="translate(818 187)" fill="#2196F3"/>
</g>
</g>
<defs>
<path id="path0_fill" d="M 14.7955 12.9182L 10.9091 9.29091C 11.7273 8.33637 12.2727 7.06364 12.2727 5.72727C 12.2727 2.54545 9.54545 -1.80865e-14 6.13636 -1.80865e-14C 2.72727 -1.80865e-14 0 2.54545 0 5.72727C 0 8.90909 2.72727 11.4545 6.13636 11.4545C 7.56818 11.4545 8.93182 11.0091 9.95455 10.1818L 13.8409 13.8091C 13.9773 13.9364 14.1818 14 14.3182 14C 14.4545 14 14.6591 13.9364 14.7955 13.8091C 15.0682 13.5545 15.0682 13.1727 14.7955 12.9182ZM 6.13636 10.1818C 3.47727 10.1818 1.36364 8.20909 1.36364 5.72727C 1.36364 3.24545 3.47727 1.27273 6.13636 1.27273C 8.79545 1.27273 10.9091 3.24545 10.9091 5.72727C 10.9091 8.20909 8.79545 10.1818 6.13636 10.1818Z"/>
</defs>
</svg>
