<svg width="30" height="40" viewBox="0 0 30 40" version="1.1" xmlns="http://www.w3.org/2000/svg" xmlns:xlink="http://www.w3.org/1999/xlink">
<title>shopping-bag (1)</title>
<desc>Created using Figma</desc>
<g id="Canvas" transform="matrix(2 0 0 2 -678 -178)">
<g id="shopping-bag (1)">
<g id="Group">
<g id="Vector">
<use xlink:href="#path0_fill" transform="translate(339 89)"/>
</g>
</g>
</g>
</g>
<defs>
<path id="path0_fill" d="M 14.9962 17.2883L 13.9231 4.39264C 13.9001 4.10634 13.674 3.88957 13.4096 3.88957L 11.2021 3.88957C 11.1714 1.73824 9.52351 0 7.5 0C 5.47649 0 3.82856 1.73824 3.7979 3.88957L 1.59044 3.88957C 1.32218 3.88957 1.0999 4.10634 1.0769 4.39264L 0.00383246 17.2883C 0.00383246 17.3047 -2.92389e-08 17.3211 -2.92389e-08 17.3374C -2.92389e-08 18.8057 1.26086 20 2.81298 20L 12.187 20C 13.7391 20 15 18.8057 15 17.3374C 15 17.3211 15 17.3047 14.9962 17.2883ZM 7.5 1.10429C 8.95248 1.10429 10.1367 2.34765 10.1673 3.88957L 4.83265 3.88957C 4.86331 2.34765 6.04752 1.10429 7.5 1.10429ZM 12.187 18.8957L 2.81298 18.8957C 1.83955 18.8957 1.05008 18.2086 1.03475 17.362L 2.06183 4.99795L 3.79407 4.99795L 3.79407 6.67485C 3.79407 6.9816 4.02402 7.22699 4.31145 7.22699C 4.59888 7.22699 4.82882 6.9816 4.82882 6.67485L 4.82882 4.99795L 10.1673 4.99795L 10.1673 6.67485C 10.1673 6.9816 10.3973 7.22699 10.6847 7.22699C 10.9722 7.22699 11.2021 6.9816 11.2021 6.67485L 11.2021 4.99795L 12.9343 4.99795L 13.9653 17.362C 13.9499 18.2086 13.1566 18.8957 12.187 18.8957Z"/>
</defs>
</svg>
